<svg xmlns="http://www.w3.org/2000/svg" viewBox="0 0 500 320" fill="none">
  <style>
    .title { font: 600 15px/1.2 system-ui, sans-serif; fill: #f1f5f9; letter-spacing: 0.2px; }
    .label { font: 500 13px/1.2 system-ui, sans-serif; fill: #e2e8f0; }
    .label-dim { font: 12px/1.2 system-ui, sans-serif; fill: #94a3b8; }
    .layer { stroke: #2a2a2a; stroke-width: 1.2; }
    .layer-top { fill: #3a2d1c; }
    .layer-2 { fill: #2b281c; }
    .layer-3 { fill: #1c2a2c; }
    .layer-4 { fill: #1c1c2b; }
    .layer-bottom { fill: #141414; }
    .highlight { fill: #f5a623; }
    .bracket { stroke: #f5a623; stroke-width: 2; fill: none; stroke-linecap: round; stroke-linejoin: round; }
    .bracket-dim { stroke: #64748b; stroke-width: 2; fill: none; stroke-linecap: round; stroke-linejoin: round; }
    .bracket-label { font: 600 12px/1.2 system-ui, sans-serif; fill: #f5a623; }
    .arrow { stroke: #f5a623; stroke-width: 2; fill: none; stroke-linecap: round; }
  </style>

  <defs>
    <marker id="arrowhead" markerWidth="10" markerHeight="10" refX="9" refY="5" orient="auto" markerUnits="userSpaceOnUse">
      <path d="M 0 0 L 10 5 L 0 10 z" fill="#f5a623"/>
    </marker>
  </defs>

  <!-- Stack layers -->
  <rect x="50" y="30" width="300" height="50" class="layer layer-top" rx="4"/>
  <text x="200" y="60" text-anchor="middle" class="title">Concepts / Intent</text>

  <rect x="50" y="85" width="300" height="50" class="layer layer-2" rx="4"/>
  <text x="200" y="115" text-anchor="middle" class="title">Processes / Workflows</text>

  <rect x="50" y="140" width="300" height="50" class="layer layer-3" rx="4"/>
  <text x="200" y="170" text-anchor="middle" class="title">Specs / Prompts</text>

  <rect x="50" y="195" width="300" height="50" class="layer layer-4" rx="4"/>
  <text x="200" y="225" text-anchor="middle" class="label">Generated Code</text>

  <rect x="50" y="250" width="300" height="50" class="layer layer-bottom" rx="4"/>
  <text x="200" y="280" text-anchor="middle" class="label-dim">Runtime / Binary</text>

  <!-- Human focus bracket -->
  <path d="M 370 35 Q 385 35 385 55 L 385 130 Q 385 160 370 160" class="bracket"/>
  <circle cx="385" cy="97" r="3" class="highlight"/>
  <text x="400" y="85" class="bracket-label">Where you</text>
  <text x="400" y="102" class="bracket-label">work now</text>

  <!-- AI focus bracket -->
  <path d="M 370 200 Q 385 200 385 220 L 385 270 Q 385 295 370 295" class="bracket-dim"/>
  <circle cx="385" cy="247" r="3" fill="#64748b"/>
  <text x="400" y="240" class="label-dim">AI handles</text>
  <text x="400" y="257" class="label-dim">this</text>

  <!-- Arrow showing interface moved up -->
  <path d="M 30 284 C 12 245 12 95 30 48" class="arrow" stroke-dasharray="4" marker-end="url(#arrowhead)"/>
  <text x="14" y="166" class="bracket-label" transform="rotate(-90, 14, 166)" style="font-size: 11px;">Interface moved up</text>
</svg>
