<svg xmlns="http://www.w3.org/2000/svg" viewBox="0 0 800 300" fill="none">
  <style>
    .title { font: bold 16px system-ui, sans-serif; fill: #f5a623; }
    .label { font: 14px system-ui, sans-serif; fill: #e5e5e5; }
    .arrow { stroke: #666; stroke-width: 2; fill: none; }
    .arrow-head { fill: #666; }
    .box { fill: #1a1a2e; stroke: #333; stroke-width: 1; rx: 8; }
    .box-highlight { fill: #2a2a4e; stroke: #f5a623; stroke-width: 2; rx: 8; }
    .dim { fill: #888; }
  </style>

  <!-- Before Section -->
  <text x="100" y="30" class="title">BEFORE</text>

  <rect x="20" y="50" width="80" height="40" class="box"/>
  <text x="60" y="75" text-anchor="middle" class="label">Idea</text>

  <line x1="100" y1="70" x2="130" y2="70" class="arrow"/>
  <polygon points="130,65 140,70 130,75" class="arrow-head"/>

  <rect x="140" y="50" width="120" height="40" class="box"/>
  <text x="200" y="75" text-anchor="middle" class="label">Think + Type</text>

  <line x1="260" y1="70" x2="290" y2="70" class="arrow"/>
  <polygon points="290,65 300,70 290,75" class="arrow-head"/>

  <rect x="300" y="50" width="80" height="40" class="box"/>
  <text x="340" y="75" text-anchor="middle" class="label">Debug</text>

  <line x1="380" y1="70" x2="410" y2="70" class="arrow"/>
  <polygon points="410,65 420,70 410,75" class="arrow-head"/>

  <rect x="420" y="50" width="80" height="40" class="box"/>
  <text x="460" y="75" text-anchor="middle" class="label">Commit</text>

  <text x="280" y="120" text-anchor="middle" class="dim" style="font-style: italic; font-size: 12px;">Linear, tightly coupled</text>

  <!-- After Section -->
  <text x="100" y="170" class="title">AFTER</text>

  <rect x="20" y="190" width="70" height="40" class="box"/>
  <text x="55" y="215" text-anchor="middle" class="label">Idea</text>

  <line x1="90" y1="210" x2="110" y2="210" class="arrow"/>
  <polygon points="110,205 120,210 110,215" class="arrow-head"/>

  <rect x="120" y="190" width="70" height="40" class="box-highlight"/>
  <text x="155" y="215" text-anchor="middle" class="label">Decide</text>

  <line x1="190" y1="210" x2="210" y2="210" class="arrow"/>
  <polygon points="210,205 220,210 210,215" class="arrow-head"/>

  <rect x="220" y="190" width="70" height="40" class="box"/>
  <text x="255" y="215" text-anchor="middle" class="label">Specify</text>

  <line x1="290" y1="210" x2="310" y2="210" class="arrow"/>
  <polygon points="310,205 320,210 310,215" class="arrow-head"/>

  <rect x="320" y="190" width="80" height="40" class="box"/>
  <text x="360" y="215" text-anchor="middle" class="label">Execute</text>

  <line x1="400" y1="210" x2="420" y2="210" class="arrow"/>
  <polygon points="420,205 430,210 420,215" class="arrow-head"/>

  <rect x="430" y="190" width="80" height="40" class="box-highlight"/>
  <text x="470" y="215" text-anchor="middle" class="label">Evaluate</text>

  <!-- Loop arrow -->
  <path d="M 510 210 Q 540 210 540 160 Q 540 150 470 150 Q 155 150 155 185" class="arrow" stroke-dasharray="4"/>
  <polygon points="150,185 155,175 160,185" class="arrow-head"/>
  <text x="550" y="180" class="dim" style="font-size: 11px;">repeat</text>

  <text x="280" y="270" text-anchor="middle" class="dim" style="font-style: italic; font-size: 12px;">Iterative, judgment-driven</text>
</svg>