<svg xmlns="http://www.w3.org/2000/svg" viewBox="0 0 800 300" fill="none">
  <style>
    .title { font: 700 15px/1.1 system-ui, sans-serif; fill: #f5a623; letter-spacing: 0.2px; }
    .label { font: 600 13px/1.2 system-ui, sans-serif; fill: #e2e8f0; }
    .arrow { stroke: #64748b; stroke-width: 2; fill: none; stroke-linecap: round; stroke-linejoin: round; }
    .box { fill: #141a2b; stroke: #2a2f3a; stroke-width: 1.2; rx: 10; }
    .box-highlight { fill: #1d2438; stroke: #f5a623; stroke-width: 2; rx: 10; }
    .dim { fill: #94a3b8; }
  </style>

  <defs>
    <marker id="arrowhead" markerWidth="10" markerHeight="10" refX="9" refY="5" orient="auto" markerUnits="userSpaceOnUse">
      <path d="M 0 0 L 10 5 L 0 10 z" fill="#64748b"/>
    </marker>
  </defs>

  <!-- Before Section -->
  <text x="100" y="30" class="title">BEFORE</text>

  <rect x="20" y="50" width="80" height="40" class="box"/>
  <text x="60" y="75" text-anchor="middle" class="label">Idea</text>

  <path d="M 100 70 H 130" class="arrow" marker-end="url(#arrowhead)"/>

  <rect x="140" y="50" width="120" height="40" class="box"/>
  <text x="200" y="75" text-anchor="middle" class="label">Think + Type</text>

  <path d="M 260 70 H 290" class="arrow" marker-end="url(#arrowhead)"/>

  <rect x="300" y="50" width="80" height="40" class="box"/>
  <text x="340" y="75" text-anchor="middle" class="label">Debug</text>

  <path d="M 380 70 H 410" class="arrow" marker-end="url(#arrowhead)"/>

  <rect x="420" y="50" width="80" height="40" class="box"/>
  <text x="460" y="75" text-anchor="middle" class="label">Commit</text>

  <text x="280" y="120" text-anchor="middle" class="dim" style="font-style: italic; font-size: 12px;">Linear, tightly coupled</text>

  <!-- After Section -->
  <text x="100" y="170" class="title">AFTER</text>

  <rect x="20" y="190" width="70" height="40" class="box"/>
  <text x="55" y="215" text-anchor="middle" class="label">Idea</text>

  <path d="M 90 210 H 110" class="arrow" marker-end="url(#arrowhead)"/>

  <rect x="120" y="190" width="70" height="40" class="box-highlight"/>
  <text x="155" y="215" text-anchor="middle" class="label">Decide</text>

  <path d="M 190 210 H 210" class="arrow" marker-end="url(#arrowhead)"/>

  <rect x="220" y="190" width="70" height="40" class="box"/>
  <text x="255" y="215" text-anchor="middle" class="label">Specify</text>

  <path d="M 290 210 H 310" class="arrow" marker-end="url(#arrowhead)"/>

  <rect x="320" y="190" width="80" height="40" class="box"/>
  <text x="360" y="215" text-anchor="middle" class="label">Execute</text>

  <path d="M 400 210 H 420" class="arrow" marker-end="url(#arrowhead)"/>

  <rect x="430" y="190" width="80" height="40" class="box-highlight"/>
  <text x="470" y="215" text-anchor="middle" class="label">Evaluate</text>

  <!-- Loop arrow -->
  <path d="M 510 210 C 580 210 580 140 470 140 C 250 140 175 150 155 185" class="arrow" stroke-dasharray="4" marker-end="url(#arrowhead)"/>
  <text x="560" y="170" class="dim" style="font-size: 11px;">repeat</text>

  <text x="280" y="270" text-anchor="middle" class="dim" style="font-style: italic; font-size: 12px;">Iterative, judgment-driven</text>
</svg>
