<svg xmlns="http://www.w3.org/2000/svg" viewBox="0 0 32 32">
  <defs>
    <linearGradient id="gradient" x1="0%" y1="0%" x2="100%" y2="100%">
      <stop offset="0%" style="stop-color:#a855f7;stop-opacity:1" />
      <stop offset="100%" style="stop-color:#ec4899;stop-opacity:1" />
    </linearGradient>
  </defs>
  <circle cx="16" cy="16" r="16" fill="url(#gradient)"/>
  <g fill="none" stroke="white" stroke-width="1.5" transform="translate(16, 16)">
    <path stroke-linecap="round" stroke-linejoin="round" d="M10 0a10 10 0 01-10 10m10-10a10 10 0 00-10-10m10 10H-10m10 10a10 10 0 01-10-10m10 10c1.84 0 3.33-4.48 3.33-10S1.84-10 0-10m0 20c-1.84 0-3.33-4.48-3.33-10S-1.84-10 0-10m-10 10a10 10 0 0110-10"/>
  </g>
</svg>